<svg width="49" height="76" viewBox="0 0 49 76" fill="none" xmlns="http://www.w3.org/2000/svg">
<path d="M38.9262 0.322962C39.3605 0.59247 39.6966 1.01166 39.8796 1.51207C40.0625 2.01247 40.0815 2.56449 39.9335 3.07796L31.9416 30.875H46.6874C47.1207 30.8748 47.5447 31.0104 47.9068 31.2652C48.2689 31.5199 48.5535 31.8826 48.7253 32.3085C48.897 32.7343 48.9486 33.2047 48.8735 33.6616C48.7984 34.1184 48.5999 34.5417 48.3027 34.8792L12.8027 75.2542C12.4592 75.6452 12.0021 75.9001 11.5059 75.9774C11.0097 76.0547 10.5037 75.9499 10.0704 75.6799C9.63699 75.41 9.30183 74.9908 9.11949 74.4909C8.93716 73.9909 8.9184 73.4396 9.06628 72.9267L17.0582 45.125H2.31241C1.87906 45.1252 1.45515 44.9895 1.09301 44.7348C0.730865 44.48 0.446338 44.1173 0.274554 43.6915C0.102769 43.2656 0.0512476 42.7952 0.126348 42.3384C0.201449 41.8815 0.399884 41.4582 0.697158 41.1207L36.1971 0.745712C36.5402 0.355258 36.9966 0.100513 37.4921 0.0228977C37.9876 -0.0547176 38.493 0.0493614 38.9262 0.318212V0.322962Z" fill="#5138ED"/>
</svg>
