<svg width="339" height="376" viewBox="0 0 339 376" fill="none" xmlns="http://www.w3.org/2000/svg">
<path fill-rule="evenodd" clip-rule="evenodd" d="M-260.322 462.562C-276.848 395.969 -253.184 328.009 -227.183 264.513C-203.758 207.306 -164.091 161.995 -119.648 119.028C-69.8407 70.8758 -23.5701 -6.60131 45.2773 1.10519C115.925 9.01319 134.34 105.671 187.061 153.36C228.563 190.9 294.828 199.262 319.743 249.372C345.603 301.384 342.692 366.19 319.318 419.366C297.37 469.294 237.515 485.622 198.944 524.18C152.382 570.726 133.174 647.294 70.6583 667.942C2.95001 690.306 -74.753 672.187 -135.342 634.59C-197.078 596.281 -242.822 533.079 -260.322 462.562Z" fill="#7D6AF2"/>
</svg>
