<svg width="334" height="419" viewBox="0 0 334 419" fill="none" xmlns="http://www.w3.org/2000/svg">
<path fill-rule="evenodd" clip-rule="evenodd" d="M226.09 -140.138C285.33 -169.439 335.458 -236.718 400.918 -222.794C466.443 -208.855 492.413 -126.432 537.304 -73.9383C586.967 -15.8642 665.765 24.7028 677.481 100.61C689.456 178.197 652.396 260.116 596.684 310.79C545.359 357.472 465.879 334.881 399.535 353.415C339.371 370.223 287.246 434.888 227.102 414.038C166.917 393.173 157.277 308.767 118.543 256.004C80.0665 203.592 8.93506 171.093 1.2596 106.4C-6.49348 41.0527 37.817 -17.4853 80.5369 -64.3297C118.701 -106.179 175.839 -115.283 226.09 -140.138Z" fill="#7D6AF2"/>
</svg>
